<mxfile host="app.diagrams.net" modified="2024-05-16T03:16:47.290Z" agent="Mozilla/5.0 (X11; Linux x86_64) AppleWebKit/537.36 (KHTML, like Gecko) Chrome/124.0.0.0 Safari/537.36" etag="r3fGN2Co-glCaoNpmETb" version="24.4.2" type="device">
  <diagram name="PÃ¡gina-1" id="B_vQkhtDYx8XLUo_7u4T">
    <mxGraphModel dx="1434" dy="786" grid="1" gridSize="10" guides="1" tooltips="1" connect="1" arrows="1" fold="1" page="1" pageScale="1" pageWidth="827" pageHeight="1169" math="0" shadow="0">
      <root>
        <mxCell id="0" />
        <mxCell id="1" parent="0" />
        <mxCell id="dHPesOABH_dAPFCz_wif-13" style="edgeStyle=orthogonalEdgeStyle;rounded=0;orthogonalLoop=1;jettySize=auto;html=1;exitX=0.5;exitY=1;exitDx=0;exitDy=0;" edge="1" parent="1" source="dHPesOABH_dAPFCz_wif-2" target="dHPesOABH_dAPFCz_wif-4">
          <mxGeometry relative="1" as="geometry" />
        </mxCell>
        <mxCell id="dHPesOABH_dAPFCz_wif-14" style="edgeStyle=orthogonalEdgeStyle;rounded=0;orthogonalLoop=1;jettySize=auto;html=1;exitX=1;exitY=0.5;exitDx=0;exitDy=0;entryX=0;entryY=0.5;entryDx=0;entryDy=0;" edge="1" parent="1" source="dHPesOABH_dAPFCz_wif-2" target="dHPesOABH_dAPFCz_wif-6">
          <mxGeometry relative="1" as="geometry" />
        </mxCell>
        <mxCell id="dHPesOABH_dAPFCz_wif-15" style="edgeStyle=orthogonalEdgeStyle;rounded=0;orthogonalLoop=1;jettySize=auto;html=1;exitX=0;exitY=0.5;exitDx=0;exitDy=0;entryX=1;entryY=0.5;entryDx=0;entryDy=0;" edge="1" parent="1" source="dHPesOABH_dAPFCz_wif-2" target="dHPesOABH_dAPFCz_wif-5">
          <mxGeometry relative="1" as="geometry" />
        </mxCell>
        <mxCell id="dHPesOABH_dAPFCz_wif-2" value="Iphone" style="swimlane;whiteSpace=wrap;html=1;" vertex="1" parent="1">
          <mxGeometry x="314" y="170" width="200" height="200" as="geometry" />
        </mxCell>
        <mxCell id="dHPesOABH_dAPFCz_wif-3" value="" style="endArrow=none;html=1;rounded=0;exitX=0;exitY=0.5;exitDx=0;exitDy=0;entryX=1;entryY=0.5;entryDx=0;entryDy=0;" edge="1" parent="1" source="dHPesOABH_dAPFCz_wif-2" target="dHPesOABH_dAPFCz_wif-2">
          <mxGeometry width="50" height="50" relative="1" as="geometry">
            <mxPoint x="170" y="280" as="sourcePoint" />
            <mxPoint x="220" y="230" as="targetPoint" />
          </mxGeometry>
        </mxCell>
        <mxCell id="dHPesOABH_dAPFCz_wif-4" value="Telefone" style="swimlane;whiteSpace=wrap;html=1;" vertex="1" parent="1">
          <mxGeometry x="314" y="480" width="200" height="200" as="geometry" />
        </mxCell>
        <mxCell id="dHPesOABH_dAPFCz_wif-7" value="" style="endArrow=none;html=1;rounded=0;exitX=0;exitY=0.5;exitDx=0;exitDy=0;entryX=1;entryY=0.5;entryDx=0;entryDy=0;" edge="1" parent="dHPesOABH_dAPFCz_wif-4">
          <mxGeometry width="50" height="50" relative="1" as="geometry">
            <mxPoint y="90" as="sourcePoint" />
            <mxPoint x="200" y="90" as="targetPoint" />
          </mxGeometry>
        </mxCell>
        <mxCell id="dHPesOABH_dAPFCz_wif-8" value="+ numero: int" style="text;html=1;align=center;verticalAlign=middle;resizable=0;points=[];autosize=1;strokeColor=none;fillColor=none;" vertex="1" parent="dHPesOABH_dAPFCz_wif-4">
          <mxGeometry y="30" width="90" height="30" as="geometry" />
        </mxCell>
        <mxCell id="dHPesOABH_dAPFCz_wif-9" value="+ ligar(valor: int): void" style="text;html=1;align=center;verticalAlign=middle;resizable=0;points=[];autosize=1;strokeColor=none;fillColor=none;" vertex="1" parent="dHPesOABH_dAPFCz_wif-4">
          <mxGeometry y="90" width="140" height="30" as="geometry" />
        </mxCell>
        <mxCell id="dHPesOABH_dAPFCz_wif-10" value="+ atender(): void" style="text;html=1;align=center;verticalAlign=middle;resizable=0;points=[];autosize=1;strokeColor=none;fillColor=none;" vertex="1" parent="dHPesOABH_dAPFCz_wif-4">
          <mxGeometry y="120" width="110" height="30" as="geometry" />
        </mxCell>
        <mxCell id="dHPesOABH_dAPFCz_wif-11" value="+ correiodevoz(): String" style="text;html=1;align=center;verticalAlign=middle;resizable=0;points=[];autosize=1;strokeColor=none;fillColor=none;" vertex="1" parent="dHPesOABH_dAPFCz_wif-4">
          <mxGeometry y="150" width="150" height="30" as="geometry" />
        </mxCell>
        <mxCell id="dHPesOABH_dAPFCz_wif-5" value="ReproducaoMusica" style="swimlane;whiteSpace=wrap;html=1;startSize=23;" vertex="1" parent="1">
          <mxGeometry x="40" y="170" width="200" height="200" as="geometry" />
        </mxCell>
        <mxCell id="dHPesOABH_dAPFCz_wif-16" value="" style="endArrow=none;html=1;rounded=0;exitX=0;exitY=0.5;exitDx=0;exitDy=0;entryX=1;entryY=0.5;entryDx=0;entryDy=0;" edge="1" parent="dHPesOABH_dAPFCz_wif-5">
          <mxGeometry width="50" height="50" relative="1" as="geometry">
            <mxPoint y="99.5" as="sourcePoint" />
            <mxPoint x="200" y="99.5" as="targetPoint" />
          </mxGeometry>
        </mxCell>
        <mxCell id="dHPesOABH_dAPFCz_wif-18" value="+ musica: String" style="text;html=1;align=center;verticalAlign=middle;resizable=0;points=[];autosize=1;strokeColor=none;fillColor=none;" vertex="1" parent="dHPesOABH_dAPFCz_wif-5">
          <mxGeometry x="-10" y="30" width="110" height="30" as="geometry" />
        </mxCell>
        <mxCell id="dHPesOABH_dAPFCz_wif-19" value="+ tocar(musica: string): void" style="text;html=1;align=center;verticalAlign=middle;resizable=0;points=[];autosize=1;strokeColor=none;fillColor=none;" vertex="1" parent="dHPesOABH_dAPFCz_wif-5">
          <mxGeometry y="100" width="170" height="30" as="geometry" />
        </mxCell>
        <mxCell id="dHPesOABH_dAPFCz_wif-20" value="+ pausar(): void" style="text;html=1;align=center;verticalAlign=middle;resizable=0;points=[];autosize=1;strokeColor=none;fillColor=none;" vertex="1" parent="dHPesOABH_dAPFCz_wif-5">
          <mxGeometry y="130" width="110" height="30" as="geometry" />
        </mxCell>
        <mxCell id="dHPesOABH_dAPFCz_wif-21" value="+ selecionar(): void" style="text;html=1;align=center;verticalAlign=middle;resizable=0;points=[];autosize=1;strokeColor=none;fillColor=none;" vertex="1" parent="dHPesOABH_dAPFCz_wif-5">
          <mxGeometry y="160" width="130" height="30" as="geometry" />
        </mxCell>
        <mxCell id="dHPesOABH_dAPFCz_wif-6" value="Navegador" style="swimlane;whiteSpace=wrap;html=1;" vertex="1" parent="1">
          <mxGeometry x="580" y="170" width="200" height="200" as="geometry" />
        </mxCell>
        <mxCell id="dHPesOABH_dAPFCz_wif-17" value="" style="endArrow=none;html=1;rounded=0;exitX=0;exitY=0.5;exitDx=0;exitDy=0;entryX=1;entryY=0.5;entryDx=0;entryDy=0;" edge="1" parent="dHPesOABH_dAPFCz_wif-6">
          <mxGeometry width="50" height="50" relative="1" as="geometry">
            <mxPoint y="99.5" as="sourcePoint" />
            <mxPoint x="200" y="99.5" as="targetPoint" />
          </mxGeometry>
        </mxCell>
        <mxCell id="dHPesOABH_dAPFCz_wif-22" value="+ exibir&lt;span style=&quot;background-color: initial;&quot;&gt;(): void&lt;/span&gt;" style="text;html=1;align=center;verticalAlign=middle;resizable=0;points=[];autosize=1;strokeColor=none;fillColor=none;" vertex="1" parent="dHPesOABH_dAPFCz_wif-6">
          <mxGeometry y="100" width="100" height="30" as="geometry" />
        </mxCell>
        <mxCell id="dHPesOABH_dAPFCz_wif-23" value="+ adicionar(): void" style="text;html=1;align=center;verticalAlign=middle;resizable=0;points=[];autosize=1;strokeColor=none;fillColor=none;" vertex="1" parent="dHPesOABH_dAPFCz_wif-6">
          <mxGeometry y="130" width="120" height="30" as="geometry" />
        </mxCell>
        <mxCell id="dHPesOABH_dAPFCz_wif-24" value="+ atualizar(): void" style="text;html=1;align=center;verticalAlign=middle;resizable=0;points=[];autosize=1;strokeColor=none;fillColor=none;" vertex="1" parent="dHPesOABH_dAPFCz_wif-6">
          <mxGeometry y="160" width="120" height="30" as="geometry" />
        </mxCell>
      </root>
    </mxGraphModel>
  </diagram>
</mxfile>
